<svg width="10" height="9" viewBox="0 0 10 9" fill="none" xmlns="http://www.w3.org/2000/svg">
<path d="M4.448 8.972C4.34133 8.972 4.25067 8.93467 4.176 8.86C4.10133 8.78533 4.064 8.69467 4.064 8.588V5.468H0.992C0.885333 5.468 0.794667 5.43067 0.72 5.356C0.645333 5.28133 0.608 5.18533 0.608 5.068V4.236C0.608 4.11867 0.645333 4.028 0.72 3.964C0.794667 3.88933 0.885333 3.852 0.992 3.852H4.064V0.811999C4.064 0.705333 4.10133 0.614666 4.176 0.54C4.25067 0.465333 4.34133 0.427999 4.448 0.427999H5.376C5.49333 0.427999 5.584 0.465333 5.648 0.54C5.72267 0.614666 5.76 0.705333 5.76 0.811999V3.852H8.832C8.93867 3.852 9.02933 3.88933 9.104 3.964C9.17867 4.028 9.216 4.11867 9.216 4.236V5.068C9.216 5.18533 9.17867 5.28133 9.104 5.356C9.02933 5.43067 8.93867 5.468 8.832 5.468H5.76V8.588C5.76 8.69467 5.72267 8.78533 5.648 8.86C5.584 8.93467 5.49333 8.972 5.376 8.972H4.448Z" fill="#21232C"/>
</svg>
