<svg width="9" height="8" viewBox="0 0 9 8" fill="none" xmlns="http://www.w3.org/2000/svg">
<path d="M3.794 7.538C3.69133 7.538 3.60733 7.50533 3.542 7.44C3.47667 7.37467 3.444 7.29067 3.444 7.188V4.542H0.854C0.751333 4.542 0.667333 4.50933 0.602 4.444C0.536667 4.37867 0.504 4.29933 0.504 4.206V3.324C0.504 3.22133 0.536667 3.13733 0.602 3.072C0.667333 3.00667 0.751333 2.974 0.854 2.974H3.444V0.411999C3.444 0.309333 3.47667 0.225333 3.542 0.16C3.60733 0.0946664 3.69133 0.0619996 3.794 0.0619996H4.76C4.86267 0.0619996 4.94667 0.0946664 5.012 0.16C5.07733 0.225333 5.11 0.309333 5.11 0.411999V2.974H7.7C7.79333 2.974 7.87267 3.00667 7.938 3.072C8.00333 3.13733 8.036 3.22133 8.036 3.324V4.206C8.036 4.29933 8.00333 4.37867 7.938 4.444C7.87267 4.50933 7.79333 4.542 7.7 4.542H5.11V7.188C5.11 7.29067 5.07733 7.37467 5.012 7.44C4.94667 7.50533 4.86267 7.538 4.76 7.538H3.794Z" fill="white"/>
</svg>
